<?xml version="1.0" encoding="utf-8"?>
<!-- Generator: Adobe Illustrator 22.1.0, SVG Export Plug-In . SVG Version: 6.00 Build 0)  -->
<svg version="1.1" id="Layer_1" focusable="false" xmlns="http://www.w3.org/2000/svg" xmlns:xlink="http://www.w3.org/1999/xlink"
	 x="0px" y="0px" viewBox="0 0 934.5 976.5" style="enable-background:new 0 0 934.5 976.5;" xml:space="preserve">
<style type="text/css">
	.st0{fill:#FFFFFF;}
</style>
<path class="st0" d="M331.1,734.6H229v-329h102.2V734.6z M280,360.7c-32.7,0-59.2-27.1-59.2-59.7c0-32.7,26.5-59.2,59.2-59.2
	c32.7,0,59.2,26.5,59.2,59.2C339.2,333.7,312.7,360.7,280,360.7z M713.5,734.6H611.6V574.5c0-38.2-0.8-87.1-53.1-87.1
	c-53.1,0-61.3,41.5-61.3,84.4v162.9H395.1v-329h98v44.9h1.4c13.6-25.8,47-53.1,96.7-53.1c103.4,0,122.4,68.1,122.4,156.5v180.7
	H713.5z"/>
</svg>
