<?xml version="1.0" encoding="utf-8"?>
<!-- Generator: Adobe Illustrator 22.1.0, SVG Export Plug-In . SVG Version: 6.00 Build 0)  -->
<svg version="1.1" id="Layer_1" xmlns="http://www.w3.org/2000/svg" xmlns:xlink="http://www.w3.org/1999/xlink" x="0px" y="0px"
	 viewBox="0 0 38.7 44.8" style="enable-background:new 0 0 38.7 44.8;" xml:space="preserve">
<style type="text/css">
	.st0{fill:#373736;}
</style>
<title>logout</title>
<path class="st0" d="M13.1,7.2v0.3c0,1.9,0,3.9,0,5.8c0,0.2-0.1,0.3-0.3,0.4c-3.7,2-6.2,5.6-6.7,9.7C5,30.7,9.9,37.6,17.2,38.7
	c7.3,1.1,14.1-3.8,15.3-11.1c0.9-5.5-1.8-11-6.7-13.8c-0.2-0.1-0.3-0.2-0.2-0.4c0-2,0-3.9,0-5.9V7.2c2.9,1,5.4,2.6,7.5,4.8
	c3.5,3.5,5.5,8.2,5.5,13.1c0.2,10.7-8.2,19.5-18.9,19.7C9.1,45.1,0.3,36.6,0,25.9C-0.2,17.5,5.1,10,13.1,7.2z"/>
<path class="st0" d="M22.5,13.4c0,3.3,0,6.7,0,10c0,0.8-0.2,1.6-0.7,2.2c-0.8,1-2.2,1.4-3.4,1c-1.2-0.4-2.1-1.6-2.1-2.9
	c0-6.9,0-13.7,0-20.6c0-1.7,1.3-3.1,3-3.2c1.7,0,3.1,1.3,3.2,3c0,0.2,0,0.4,0,0.6L22.5,13.4z"/>
</svg>
