<svg id="Layer_1" data-name="Layer 1" xmlns="http://www.w3.org/2000/svg" viewBox="0 0 38.66 44.82"><defs><style>.cls-1{fill:#fff;}</style></defs><title>logout</title><path class="cls-1" d="M15.58,8.14v.3c0,1.94,0,3.88,0,5.81a.42.42,0,0,1-.25.42A13.1,13.1,0,0,0,8.6,24.36a13.38,13.38,0,1,0,19.73-9.61.42.42,0,0,1-.24-.42c0-2,0-3.95,0-5.92V8.09a18.83,18.83,0,0,1,7.53,4.76A19,19,0,0,1,41.16,26,19.32,19.32,0,1,1,15.58,8.14Z" transform="translate(-2.5 -0.91)"/><path class="cls-1" d="M25,14.27c0,3.33,0,6.67,0,10a3.33,3.33,0,0,1-.73,2.21,3.14,3.14,0,0,1-3.42,1,3.09,3.09,0,0,1-2.1-2.89q0-10.29,0-20.58a3.11,3.11,0,0,1,6.22-.15c0,.21,0,.43,0,.64Z" transform="translate(-2.5 -0.91)"/></svg>