<?xml version="1.0" encoding="utf-8"?>
<!-- Generator: Adobe Illustrator 22.1.0, SVG Export Plug-In . SVG Version: 6.00 Build 0)  -->
<svg version="1.0" id="Layer_1" xmlns="http://www.w3.org/2000/svg" xmlns:xlink="http://www.w3.org/1999/xlink" x="0px" y="0px"
	 viewBox="0 0 140 140" style="enable-background:new 0 0 140 140;" xml:space="preserve">
<style type="text/css">
	.st0{fill:#626895;}
	.st1{fill:#FFFFFF;}
</style>
<rect x="-19" class="st0" width="188" height="151"/>
<g>
	<g>
		<path class="st1" d="M72.6,24c-2.2,0.5-4.4,1.1-6.3,2.8c2.9-1,5.7-1.2,8.5-0.7c8.3,1.4,14.2,7.1,16,15.4c0.9,4.4,0.6,8.8-0.3,13.1
			c-0.2,0.7-0.2,1.3,0.4,2c0.4,0.4,0.6,1.1,0.8,1.7c0.5,2.6-0.1,5-1.9,6.9c-0.5,0.5-1.2,1-1.8,1.1c-0.9,0.1-1,0.6-1.2,1.2
			c-1.4,4.6-3.5,8.9-7.3,12.1C73,85,64.2,84.2,58.6,78c-2.7-3.1-4.5-6.7-5.6-10.6c-0.2-0.6-0.4-1-1.1-1.1c-0.7-0.2-1.5-0.7-2.1-1.3
			c-1.9-1.9-2.8-6.5-0.8-8.8c0.2-0.2,0.1-0.7,0-1c-0.8-3.7-1.2-7.4-0.4-11.1c1.2-6.2,4.8-10.1,10.9-11.7c0.6-0.2,0.9-0.4,1.2-1
			c2.2-4.7,5.9-7.1,11-7.6c0.2,0,0.5,0,0.7,0C72.4,23.8,72.5,23.8,72.6,24z"/>
	</g>
	<g>
		<path class="st1" d="M69.3,116.3c-11.6-0.1-25.1-2.8-38-8.6c-0.8-0.4-1.1-0.9-1.1-1.8c0.1-7.7,4.1-13.6,11.2-16.5
			c4.5-1.8,9-3.8,13.5-5.6c0.3-0.1,1,0,1.3,0.3c4.3,3.1,8.5,6.3,12.8,9.5c0.7,0.5,1.1,0.5,1.8-0.1c4.1-3.3,8.2-6.6,12.4-9.9
			c0.6-0.5,1-0.4,1.8-0.1c2.9,1.4,5.8,2.6,8.8,3.9c2.4,1,5,1.8,7.3,3.1c5.5,3,8.5,7.8,8.8,14.2c0.1,1.1,0.1,2.1,0.1,3.2
			c0,0.3-0.3,0.8-0.5,0.9c-4.6,1.6-9.1,3.3-13.7,4.6C87.8,115.5,79.9,116.3,69.3,116.3z"/>
	</g>
</g>
</svg>
