<?xml version="1.0" encoding="utf-8"?>
<!-- Generator: Adobe Illustrator 22.1.0, SVG Export Plug-In . SVG Version: 6.00 Build 0)  -->
<svg version="1.1" id="Layer_1" focusable="false" xmlns="http://www.w3.org/2000/svg" xmlns:xlink="http://www.w3.org/1999/xlink"
	 x="0px" y="0px" viewBox="0 0 657 731" style="enable-background:new 0 0 657 731;" xml:space="preserve">
<style type="text/css">
	.st0{fill:#FFFFFF;}
</style>
<path class="st0" d="M339.3,140.9c-92.3,0-183.6,61.6-183.6,161.2c0,63.4,35.6,99.4,57.2,99.4c8.9,0,14-24.8,14-31.9
	c0-8.4-21.3-26.2-21.3-61c0-72.4,55.1-123.7,126.4-123.7c61.3,0,106.6,34.8,106.6,98.8c0,47.8-19.2,137.4-81.3,137.4
	c-22.4,0-41.6-16.2-41.6-39.4c0-34,23.8-67,23.8-102.1c0-59.6-84.5-48.8-84.5,23.2c0,15.1,1.9,31.9,8.6,45.6
	c-12.4,53.5-37.8,133.1-37.8,188.2c0,17,2.4,33.8,4,50.8c3.1,3.4,1.5,3.1,6.2,1.3c45.4-62.1,43.7-74.3,64.3-155.5
	c11.1,21.1,39.7,32.4,62.4,32.4c95.6,0,138.5-93.2,138.5-177.1C501.3,199.2,424.1,140.9,339.3,140.9z"/>
</svg>
