<?xml version="1.0" encoding="utf-8"?>
<!-- Generator: Adobe Illustrator 22.1.0, SVG Export Plug-In . SVG Version: 6.00 Build 0)  -->
<svg version="1.1" id="Layer_1" focusable="false" xmlns="http://www.w3.org/2000/svg" xmlns:xlink="http://www.w3.org/1999/xlink"
	 x="0px" y="0px" viewBox="0 0 1072 966" style="enable-background:new 0 0 1072 966;" xml:space="preserve">
<style type="text/css">
	.st0{fill:#BEBEBE;}
</style>
<path class="st0" d="M759.7,368.1c0.4,5,0.4,10,0.4,15c0,152.6-116.1,328.4-328.4,328.4c-65.4,0-126.1-18.9-177.3-51.8
	c9.3,1.1,18.2,1.4,27.9,1.4c54,0,103.6-18.2,143.3-49.3c-50.7-1.1-93.3-34.3-107.9-80c7.1,1.1,14.3,1.8,21.8,1.8
	c10.4,0,20.7-1.4,30.4-3.9c-52.9-10.7-92.6-57.2-92.6-113.3v-1.4c15.4,8.6,33.2,13.9,52.2,14.7c-31.1-20.7-51.5-56.1-51.5-96.1
	c0-21.4,5.7-41.1,15.7-58.2c56.8,70,142.2,115.8,238,120.8c-1.8-8.6-2.9-17.5-2.9-26.4c0-63.6,51.5-115.4,115.4-115.4
	c33.2,0,63.3,13.9,84.3,36.5c26.1-5,51.1-14.7,73.3-27.9c-8.6,26.8-26.8,49.3-50.7,63.6c23.2-2.5,45.7-8.9,66.5-17.9
	C801.9,331.4,782.2,351.8,759.7,368.1L759.7,368.1z"/>
</svg>
